<svg width="136" height="40" viewBox="0 0 136 40" fill="none" xmlns="http://www.w3.org/2000/svg">
<g clip-path="url(#clip0_1_2325)">
<path d="M130.508 40H5.50751C2.70751 40 0.507507 37.8 0.507507 35V5C0.507507 2.2 2.70751 0 5.50751 0H130.508C133.308 0 135.508 2.2 135.508 5V35C135.508 37.7 133.308 40 130.508 40Z" fill="black"/>
<path d="M130.508 0.8C132.808 0.8 134.708 2.7 134.708 5V35C134.708 37.3 132.808 39.2 130.508 39.2H5.50751C3.20751 39.2 1.30751 37.3 1.30751 35V5C1.30751 2.7 3.20751 0.8 5.50751 0.8H130.508ZM130.508 0H5.50751C2.70751 0 0.507507 2.2 0.507507 5V35C0.507507 37.8 2.70751 40 5.50751 40H130.508C133.308 40 135.508 37.8 135.508 35V5C135.508 2.3 133.308 0 130.508 0Z" fill="#A6A6A6"/>
<path d="M47.9075 10.2C47.9075 11 47.7075 11.7 47.2075 12.2C46.6075 12.8 45.9075 13.1 45.0075 13.1C44.1075 13.1 43.4075 12.8 42.8075 12.2C42.2075 11.6 41.9075 10.9 41.9075 10C41.9075 9.1 42.2075 8.4 42.8075 7.8C43.4075 7.2 44.1075 6.9 45.0075 6.9C45.4075 6.9 45.8075 7 46.2075 7.2C46.6075 7.4 46.9075 7.6 47.1075 7.9L46.6075 8.4C46.2075 7.9 45.7075 7.7 45.0075 7.7C44.4075 7.7 43.8075 7.9 43.4075 8.4C42.9075 8.8 42.7075 9.4 42.7075 10.1C42.7075 10.8 42.9075 11.4 43.4075 11.8C43.9075 12.2 44.4075 12.5 45.0075 12.5C45.7075 12.5 46.2075 12.3 46.7075 11.8C47.0075 11.5 47.2075 11.1 47.2075 10.6H45.0075V9.9H47.9075C47.9075 9.9 47.9075 10.1 47.9075 10.2Z" fill="white" stroke="white" stroke-width="0.2" stroke-miterlimit="10"/>
<path d="M52.5075 7.7H49.8075V9.6H52.3075V10.3H49.8075V12.2H52.5075V13H49.0075V7H52.5075V7.7Z" fill="white" stroke="white" stroke-width="0.2" stroke-miterlimit="10"/>
<path d="M55.8075 13H55.0075V7.7H53.3075V7H57.5075V7.7H55.8075V13Z" fill="white" stroke="white" stroke-width="0.2" stroke-miterlimit="10"/>
<path d="M60.4075 13V7H61.2075V13H60.4075Z" fill="white" stroke="white" stroke-width="0.2" stroke-miterlimit="10"/>
<path d="M64.6075 13H63.8075V7.7H62.1075V7H66.2075V7.7H64.5075V13H64.6075Z" fill="white" stroke="white" stroke-width="0.2" stroke-miterlimit="10"/>
<path d="M74.1075 12.2C73.5075 12.8 72.8075 13.1 71.9075 13.1C71.0075 13.1 70.3075 12.8 69.7075 12.2C69.1075 11.6 68.8075 10.9 68.8075 10C68.8075 9.1 69.1075 8.4 69.7075 7.8C70.3075 7.2 71.0075 6.9 71.9075 6.9C72.8075 6.9 73.5075 7.2 74.1075 7.8C74.7075 8.4 75.0075 9.1 75.0075 10C75.0075 10.9 74.7075 11.6 74.1075 12.2ZM70.3075 11.7C70.7075 12.1 71.3075 12.4 71.9075 12.4C72.5075 12.4 73.1075 12.2 73.5075 11.7C73.9075 11.3 74.2075 10.7 74.2075 10C74.2075 9.3 74.0075 8.7 73.5075 8.3C73.1075 7.9 72.5075 7.6 71.9075 7.6C71.3075 7.6 70.7075 7.8 70.3075 8.3C69.9075 8.7 69.6075 9.3 69.6075 10C69.6075 10.7 69.8075 11.3 70.3075 11.7Z" fill="white" stroke="white" stroke-width="0.2" stroke-miterlimit="10"/>
<path d="M76.1075 13V7H77.0075L79.9075 11.7V10.5V7H80.7075V13H79.9075L76.8075 8.1V9.3V13H76.1075Z" fill="white" stroke="white" stroke-width="0.2" stroke-miterlimit="10"/>
<path d="M68.6075 21.8C66.2075 21.8 64.3075 23.6 64.3075 26.1C64.3075 28.5 66.2075 30.4 68.6075 30.4C71.0075 30.4 72.9075 28.6 72.9075 26.1C72.9075 23.5 71.0075 21.8 68.6075 21.8ZM68.6075 28.6C67.3075 28.6 66.2075 27.5 66.2075 26C66.2075 24.5 67.3075 23.4 68.6075 23.4C69.9075 23.4 71.0075 24.4 71.0075 26C71.0075 27.5 69.9075 28.6 68.6075 28.6ZM59.3075 21.8C56.9075 21.8 55.0075 23.6 55.0075 26.1C55.0075 28.5 56.9075 30.4 59.3075 30.4C61.7075 30.4 63.6075 28.6 63.6075 26.1C63.6075 23.5 61.7075 21.8 59.3075 21.8ZM59.3075 28.6C58.0075 28.6 56.9075 27.5 56.9075 26C56.9075 24.5 58.0075 23.4 59.3075 23.4C60.6075 23.4 61.7075 24.4 61.7075 26C61.7075 27.5 60.6075 28.6 59.3075 28.6ZM48.2075 23.1V24.9H52.5075C52.4075 25.9 52.0075 26.7 51.5075 27.2C50.9075 27.8 49.9075 28.5 48.2075 28.5C45.5075 28.5 43.5075 26.4 43.5075 23.7C43.5075 21 45.6075 18.9 48.2075 18.9C49.6075 18.9 50.7075 19.5 51.5075 20.2L52.8075 18.9C51.7075 17.9 50.3075 17.1 48.3075 17.1C44.7075 17.1 41.6075 20.1 41.6075 23.7C41.6075 27.3 44.7075 30.3 48.3075 30.3C50.3075 30.3 51.7075 29.7 52.9075 28.4C54.1075 27.2 54.5075 25.5 54.5075 24.2C54.5075 23.8 54.5075 23.4 54.4075 23.1H48.2075ZM93.6075 24.5C93.2075 23.5 92.2075 21.8 90.0075 21.8C87.8075 21.8 86.0075 23.5 86.0075 26.1C86.0075 28.5 87.8075 30.4 90.2075 30.4C92.1075 30.4 93.3075 29.2 93.7075 28.5L92.3075 27.5C91.8075 28.2 91.2075 28.7 90.2075 28.7C89.2075 28.7 88.6075 28.3 88.1075 27.4L93.8075 25L93.6075 24.5ZM87.8075 25.9C87.8075 24.3 89.1075 23.4 90.0075 23.4C90.7075 23.4 91.4075 23.8 91.6075 24.3L87.8075 25.9ZM83.1075 30H85.0075V17.5H83.1075V30ZM80.1075 22.7C79.6075 22.2 78.8075 21.7 77.8075 21.7C75.7075 21.7 73.7075 23.6 73.7075 26C73.7075 28.4 75.6075 30.2 77.8075 30.2C78.8075 30.2 79.6075 29.7 80.0075 29.2H80.1075V29.8C80.1075 31.4 79.2075 32.3 77.8075 32.3C76.7075 32.3 75.9075 31.5 75.7075 30.8L74.1075 31.5C74.6075 32.6 75.8075 34 77.9075 34C80.1075 34 81.9075 32.7 81.9075 29.6V22H80.1075V22.7ZM77.9075 28.6C76.6075 28.6 75.5075 27.5 75.5075 26C75.5075 24.5 76.6075 23.4 77.9075 23.4C79.2075 23.4 80.2075 24.5 80.2075 26C80.2075 27.5 79.2075 28.6 77.9075 28.6ZM102.308 17.5H97.8075V30H99.7075V25.3H102.308C104.408 25.3 106.408 23.8 106.408 21.4C106.408 19 104.408 17.5 102.308 17.5ZM102.408 23.5H99.7075V19.2H102.408C103.808 19.2 104.608 20.4 104.608 21.3C104.508 22.4 103.708 23.5 102.408 23.5ZM113.908 21.7C112.508 21.7 111.108 22.3 110.608 23.6L112.308 24.3C112.708 23.6 113.308 23.4 114.008 23.4C115.008 23.4 115.908 24 116.008 25V25.1C115.708 24.9 114.908 24.6 114.108 24.6C112.308 24.6 110.508 25.6 110.508 27.4C110.508 29.1 112.008 30.2 113.608 30.2C114.908 30.2 115.508 29.6 116.008 29H116.108V30H117.908V25.2C117.708 23 116.008 21.7 113.908 21.7ZM113.708 28.6C113.108 28.6 112.208 28.3 112.208 27.5C112.208 26.5 113.308 26.2 114.208 26.2C115.008 26.2 115.408 26.4 115.908 26.6C115.708 27.8 114.708 28.6 113.708 28.6ZM124.208 22L122.108 27.4H122.008L119.808 22H117.808L121.108 29.6L119.208 33.8H121.108L126.208 22H124.208ZM107.408 30H109.308V17.5H107.408V30Z" fill="white"/>
<path d="M10.9075 7.5C10.6075 7.8 10.4075 8.3 10.4075 8.9V31C10.4075 31.6 10.6075 32.1 10.9075 32.4L11.0075 32.5L23.4075 20.1V20V19.9L10.9075 7.5Z" fill="url(#paint0_linear_1_2325)"/>
<path d="M27.5075 24.3L23.4075 20.2V20V19.9L27.5075 15.8L27.6075 15.9L32.5075 18.7C33.9075 19.5 33.9075 20.8 32.5075 21.6L27.5075 24.3Z" fill="url(#paint1_linear_1_2325)"/>
<path d="M27.6075 24.2L23.4075 20L10.9075 32.5C11.4075 33 12.1075 33 13.0075 32.6L27.6075 24.2Z" fill="url(#paint2_linear_1_2325)"/>
<path d="M27.6075 15.8L13.0075 7.50001C12.1075 7.00001 11.4075 7.10001 10.9075 7.60001L23.4075 20L27.6075 15.8Z" fill="url(#paint3_linear_1_2325)"/>
<path opacity="0.2" d="M27.5075 24.1L13.0075 32.3C12.2075 32.8 11.5075 32.7 11.0075 32.3L10.9075 32.4L11.0075 32.5C11.5075 32.9 12.2075 33 13.0075 32.5L27.5075 24.1Z" fill="black"/>
<path opacity="0.12" d="M10.9075 32.3C10.6075 32 10.5075 31.5 10.5075 30.9V31C10.5075 31.6 10.7075 32.1 11.0075 32.4V32.3H10.9075Z" fill="black"/>
<path opacity="0.12" d="M32.5075 21.3L27.5075 24.1L27.6075 24.2L32.5075 21.4C33.2075 21 33.5075 20.5 33.5075 20C33.5075 20.5 33.1075 20.9 32.5075 21.3Z" fill="black"/>
<path opacity="0.25" d="M13.0075 7.6L32.5075 18.7C33.1075 19.1 33.5075 19.5 33.5075 20C33.5075 19.5 33.2075 19 32.5075 18.6L13.0075 7.5C11.6075 6.7 10.5075 7.4 10.5075 9V9.1C10.5075 7.5 11.6075 6.8 13.0075 7.6Z" fill="white"/>
</g>
<defs>
<linearGradient id="paint0_linear_1_2325" x1="22.3072" y1="8.7097" x2="5.5248" y2="25.4921" gradientUnits="userSpaceOnUse">
<stop stop-color="#00A0FF"/>
<stop offset="0.00657445" stop-color="#00A1FF"/>
<stop offset="0.2601" stop-color="#00BEFF"/>
<stop offset="0.5122" stop-color="#00D2FF"/>
<stop offset="0.7604" stop-color="#00DFFF"/>
<stop offset="1" stop-color="#00E3FF"/>
</linearGradient>
<linearGradient id="paint1_linear_1_2325" x1="34.3419" y1="20.0014" x2="10.145" y2="20.0014" gradientUnits="userSpaceOnUse">
<stop stop-color="#FFE000"/>
<stop offset="0.4087" stop-color="#FFBD00"/>
<stop offset="0.7754" stop-color="#FFA500"/>
<stop offset="1" stop-color="#FF9C00"/>
</linearGradient>
<linearGradient id="paint2_linear_1_2325" x1="25.3345" y1="22.2961" x2="2.5762" y2="45.0544" gradientUnits="userSpaceOnUse">
<stop stop-color="#FF3A44"/>
<stop offset="1" stop-color="#C31162"/>
</linearGradient>
<linearGradient id="paint3_linear_1_2325" x1="7.8048" y1="0.176205" x2="17.9674" y2="10.3387" gradientUnits="userSpaceOnUse">
<stop stop-color="#32A071"/>
<stop offset="0.0685" stop-color="#2DA771"/>
<stop offset="0.4762" stop-color="#15CF74"/>
<stop offset="0.8009" stop-color="#06E775"/>
<stop offset="1" stop-color="#00F076"/>
</linearGradient>
<clipPath id="clip0_1_2325">
<rect width="135" height="40" fill="white" transform="translate(0.507507)"/>
</clipPath>
</defs>
</svg>
