<svg xmlns="http://www.w3.org/2000/svg" version="1.1" xmlns:xlink="http://www.w3.org/1999/xlink" xmlns:svgjs="http://svgjs.dev/svgjs" width="2000" height="318" viewBox="0 0 2000 318"><g transform="matrix(1,0,0,1,-1.2121212121212466,0.45542860671696417)"><svg viewBox="0 0 396 63" data-background-color="#ffffff" preserveAspectRatio="xMidYMid meet" height="318" width="2000" xmlns="http://www.w3.org/2000/svg" xmlns:xlink="http://www.w3.org/1999/xlink"><g id="tight-bounds" transform="matrix(1,0,0,1,0.2400000000000091,-0.0902264220854363)"><svg viewBox="0 0 395.52 63.180452844170844" height="63.180452844170844" width="395.52"><g><svg viewBox="0 0 480.4395105991329 76.74551437066403" height="63.180452844170844" width="395.52"><g><rect width="5.00795201687215" height="66.63865213082259" x="408.6298220336967" y="5.053431119920717" fill="#000000" opacity="1" stroke-width="0" stroke="transparent" fill-opacity="1" class="rect-qz-0" data-fill-palette-color="primary" rx="1%" id="qz-0" data-palette-color="#76abae"></rect></g><g transform="matrix(1,0,0,1,0,10.6066521308226)"><svg viewBox="0 0 395.52 55.53221010901883" height="55.53221010901883" width="395.52"><g id="textblocktransform"><svg viewBox="0 0 395.52 55.53221010901883" height="55.53221010901883" width="395.52" id="textblock"><g><svg viewBox="0 0 395.52 55.53221010901883" height="55.53221010901883" width="395.52"><g transform="matrix(1,0,0,1,0,0)"><svg width="395.52" viewBox="1.75 -33.13 302.67 42.510000000000005" height="55.53221010901883" data-palette-color="#76abae"><path d="M10.93 0.55L10.93 0.55Q7.98 0.55 5.78-0.09 3.58-0.73 2.13-1.48L2.13-1.48 1.75-5.23Q3.58-4.28 5.76-3.58 7.95-2.88 10.73-2.88L10.73-2.88Q13.55-2.88 14.98-3.78 16.4-4.67 16.4-6.45L16.4-6.45 16.4-6.73Q16.4-7.88 15.86-8.63 15.33-9.38 13.93-9.95 12.53-10.53 9.95-11.1L9.95-11.1Q6.88-11.78 5.1-12.69 3.33-13.6 2.56-14.95 1.8-16.3 1.8-18.25L1.8-18.25 1.8-18.48Q1.8-21.68 4.03-23.33 6.25-24.98 10.73-24.98L10.73-24.98Q13.6-24.98 15.71-24.33 17.82-23.68 19.18-22.88L19.18-22.88 19.55-19.45Q17.93-20.4 15.83-21.03 13.73-21.65 11.1-21.65L11.1-21.65Q9.2-21.65 8.03-21.26 6.85-20.88 6.33-20.16 5.8-19.45 5.8-18.45L5.8-18.45 5.8-18.25Q5.8-17.15 6.33-16.39 6.85-15.63 8.21-15.06 9.58-14.5 12-13.98L12-13.98Q15.13-13.35 16.96-12.48 18.8-11.6 19.6-10.26 20.4-8.93 20.4-6.83L20.4-6.83 20.4-6.4Q20.4-2.95 18-1.2 15.6 0.55 10.93 0.55ZM59.87 0L55.82 0 55.82-15.28Q55.82-17.2 55.34-18.61 54.85-20.03 53.73-20.8 52.62-21.58 50.75-21.58L50.75-21.58Q48.97-21.58 47.67-20.85 46.37-20.13 45.57-18.91 44.77-17.7 44.45-16.15L44.45-16.15 43.82-19.03 44.32-19.03Q44.72-20.6 45.67-21.95 46.62-23.3 48.25-24.13 49.87-24.95 52.27-24.95L52.27-24.95Q55-24.95 56.66-23.88 58.32-22.8 59.1-20.74 59.87-18.68 59.87-15.73L59.87-15.73 59.87 0ZM29.4 0L25.35 0 25.35-24.4 29.4-24.4 29.22-18.55 29.4-18.3 29.4 0ZM44.62 0L40.6 0 40.6-15.28Q40.6-17.2 40.11-18.61 39.62-20.03 38.52-20.8 37.42-21.58 35.55-21.58L35.55-21.58Q33.75-21.58 32.45-20.85 31.15-20.13 30.35-18.89 29.55-17.65 29.22-16.07L29.22-16.07 28.47-18.95 29.37-18.95Q29.75-20.6 30.67-21.96 31.6-23.33 33.19-24.14 34.77-24.95 37.05-24.95L37.05-24.95Q40.42-24.95 42.19-23.2 43.95-21.45 44.4-18.1L44.4-18.1Q44.52-17.6 44.57-17.01 44.62-16.43 44.62-15.85L44.62-15.85 44.62 0ZM84.65 0L80.62 0 80.8-5.93 80.65-6.55 80.65-14.33 80.67-15.75Q80.67-18.73 79.16-20.15 77.65-21.58 74.37-21.58L74.37-21.58Q71.75-21.58 69.56-20.83 67.37-20.08 65.67-19.07L65.67-19.07 66.05-22.53Q67-23.1 68.31-23.66 69.62-24.23 71.31-24.6 73-24.98 75.02-24.98L75.02-24.98Q77.65-24.98 79.48-24.34 81.32-23.7 82.46-22.5 83.59-21.3 84.12-19.6 84.65-17.9 84.65-15.8L84.65-15.8 84.65 0ZM72.22 0.53L72.22 0.53Q68.59 0.53 66.66-1.24 64.72-3 64.72-6.28L64.72-6.28 64.72-7Q64.72-10.38 66.81-12.04 68.9-13.7 73.45-14.35L73.45-14.35 81.17-15.45 81.4-12.5 73.95-11.43Q71.15-11.03 69.95-10.06 68.75-9.1 68.75-7.23L68.75-7.23 68.75-6.83Q68.75-4.9 69.93-3.88 71.12-2.85 73.5-2.85L73.5-2.85Q75.59-2.85 77.09-3.58 78.59-4.3 79.52-5.53 80.45-6.75 80.77-8.25L80.77-8.25 81.4-5.5 80.62-5.5Q80.27-3.9 79.31-2.53 78.34-1.15 76.62-0.31 74.9 0.53 72.22 0.53ZM94.69-14.93L94.69-14.93 93.77-18.05 94.77-18.1Q95.57-21.2 97.52-22.99 99.47-24.78 102.69-24.78L102.69-24.78Q103.49-24.78 104.13-24.65 104.77-24.53 105.27-24.35L105.27-24.35 105.52-20.43Q104.89-20.63 104.13-20.75 103.37-20.88 102.44-20.88L102.44-20.88Q99.69-20.88 97.66-19.35 95.62-17.82 94.69-14.93ZM94.89 0L90.84 0 90.84-24.4 94.79-24.4 94.59-17.2 94.89-16.9 94.89 0ZM118.37 0.5L118.37 0.5Q115.54 0.5 113.82-0.35 112.09-1.2 111.32-2.93 110.54-4.65 110.54-7.23L110.54-7.23 110.54-22.63 114.54-22.63 114.54-7.7Q114.54-5.3 115.64-4.16 116.74-3.03 119.34-3.03L119.34-3.03Q120.82-3.03 122.18-3.35 123.54-3.68 124.74-4.28L124.74-4.28 124.37-0.8Q123.19-0.2 121.62 0.15 120.04 0.5 118.37 0.5ZM124.12-20.8L106.54-20.8 106.54-24.05 124.49-24.05 124.12-20.8ZM114.44-23.65L110.57-23.65 110.54-30.5 114.62-31.03 114.44-23.65ZM149.29-7.3L149.29-7.3Q144.31-7.3 141.65-9.47 138.99-11.65 138.99-15.7L138.99-15.7 138.99-16.32Q138.99-18.85 140.02-20.73 141.06-22.6 143.34-23.66 145.61-24.73 149.29-24.83L149.29-24.83 161.74-25.23 161.74-22.03 154.39-22.28 154.36-22.1Q156.09-21.75 157.19-20.9 158.29-20.05 158.82-18.78 159.36-17.5 159.36-15.8L159.36-15.8 159.36-15.25Q159.36-11.38 156.81-9.34 154.26-7.3 149.29-7.3ZM149.11 6.15L149.11 6.15 149.69 6.15Q151.94 6.15 153.55 5.81 155.16 5.48 156.04 4.75 156.91 4.03 156.91 2.83L156.91 2.83 156.91 2.73Q156.91 1.33 155.9 0.59 154.89-0.15 152.44-0.38L152.44-0.38 145.54-1 146.69-1.05Q145.29-0.85 144.22-0.4 143.16 0.05 142.56 0.79 141.96 1.53 141.96 2.63L141.96 2.63 141.96 2.68Q141.96 3.95 142.84 4.73 143.71 5.5 145.31 5.83 146.91 6.15 149.11 6.15ZM149.61 9.38L148.89 9.38Q145.59 9.38 143.2 8.81 140.81 8.25 139.5 6.99 138.19 5.73 138.19 3.6L138.19 3.6 138.19 3.5Q138.19 2 138.9 1 139.61 0 140.82-0.58 142.04-1.15 143.54-1.35L143.54-1.35 143.51-1.5Q141.46-1.85 140.49-2.71 139.51-3.58 139.51-4.95L139.51-4.95 139.51-4.98Q139.51-5.93 139.95-6.6 140.39-7.28 141.27-7.68 142.16-8.08 143.54-8.18L143.54-8.18 143.54-8.68 148.19-7.5 146.29-7.55Q144.59-7.53 143.94-7.14 143.29-6.75 143.29-5.98L143.29-5.98 143.29-5.95Q143.29-5.13 144.21-4.7 145.14-4.28 147.36-4.03L147.36-4.03 153.29-3.43Q157.16-3.03 158.94-1.56 160.71-0.1 160.71 2.75L160.71 2.75 160.71 2.88Q160.71 5.15 159.36 6.6 158.01 8.05 155.54 8.71 153.06 9.38 149.61 9.38L149.61 9.38ZM149.24-10.3L149.24-10.3Q151.34-10.3 152.72-10.91 154.11-11.53 154.82-12.76 155.54-14 155.54-15.8L155.54-15.8 155.54-16.4Q155.54-18.15 154.85-19.38 154.16-20.6 152.79-21.24 151.41-21.88 149.34-21.88L149.34-21.88 149.19-21.88Q146.94-21.88 145.52-21.19 144.11-20.5 143.47-19.26 142.84-18.03 142.84-16.38L142.84-16.38 142.84-15.8Q142.84-14 143.55-12.78 144.26-11.55 145.69-10.93 147.11-10.3 149.24-10.3ZM183.91 0L179.88 0 180.06-5.93 179.91-6.55 179.91-14.33 179.93-15.75Q179.93-18.73 178.42-20.15 176.91-21.58 173.63-21.58L173.63-21.58Q171.01-21.58 168.82-20.83 166.63-20.08 164.93-19.07L164.93-19.07 165.31-22.53Q166.26-23.1 167.57-23.66 168.88-24.23 170.57-24.6 172.26-24.98 174.28-24.98L174.28-24.98Q176.91-24.98 178.75-24.34 180.58-23.7 181.72-22.5 182.86-21.3 183.38-19.6 183.91-17.9 183.91-15.8L183.91-15.8 183.91 0ZM171.48 0.53L171.48 0.53Q167.86 0.53 165.92-1.24 163.98-3 163.98-6.28L163.98-6.28 163.98-7Q163.98-10.38 166.07-12.04 168.16-13.7 172.71-14.35L172.71-14.35 180.43-15.45 180.66-12.5 173.21-11.43Q170.41-11.03 169.21-10.06 168.01-9.1 168.01-7.23L168.01-7.23 168.01-6.83Q168.01-4.9 169.2-3.88 170.38-2.85 172.76-2.85L172.76-2.85Q174.86-2.85 176.36-3.58 177.86-4.3 178.78-5.53 179.71-6.75 180.03-8.25L180.03-8.25 180.66-5.5 179.88-5.5Q179.53-3.9 178.57-2.53 177.61-1.15 175.88-0.31 174.16 0.53 171.48 0.53ZM198.16 0.53L198.16 0.53Q193.76 0.53 191.46-2.2 189.16-4.93 189.16-10.15L189.16-10.15 189.16-14.18Q189.16-19.43 191.48-22.19 193.81-24.95 198.33-24.95L198.33-24.95Q200.58-24.95 202.23-24.19 203.88-23.43 204.91-22.05 205.93-20.68 206.28-18.8L206.28-18.8 207.61-18.8 206.41-15.08Q206.33-17.23 205.44-18.69 204.56-20.15 203.04-20.9 201.53-21.65 199.58-21.65L199.58-21.65Q196.48-21.65 194.84-19.85 193.21-18.05 193.21-14.55L193.21-14.55 193.21-9.9Q193.21-6.45 194.84-4.65 196.48-2.85 199.58-2.85L199.58-2.85Q201.43-2.85 202.86-3.56 204.28-4.28 205.22-5.54 206.16-6.8 206.51-8.4L206.51-8.4 207.51-5.5 206.31-5.5Q205.96-3.85 204.97-2.48 203.98-1.1 202.32-0.29 200.66 0.53 198.16 0.53ZM210.36 0L206.31 0 206.48-5.9 206.41-7.2 206.41-17.4 206.43-18.25 206.33-25.18 206.33-33.13 210.36-33.13 210.36 0ZM226.45-7.3L226.45-7.3Q221.48-7.3 218.82-9.47 216.15-11.65 216.15-15.7L216.15-15.7 216.15-16.32Q216.15-18.85 217.19-20.73 218.23-22.6 220.5-23.66 222.78-24.73 226.45-24.83L226.45-24.83 238.9-25.23 238.9-22.03 231.55-22.28 231.53-22.1Q233.25-21.75 234.35-20.9 235.45-20.05 235.99-18.78 236.53-17.5 236.53-15.8L236.53-15.8 236.53-15.25Q236.53-11.38 233.98-9.34 231.43-7.3 226.45-7.3ZM226.28 6.15L226.28 6.15 226.85 6.15Q229.1 6.15 230.72 5.81 232.33 5.48 233.2 4.75 234.08 4.03 234.08 2.83L234.08 2.83 234.08 2.73Q234.08 1.33 233.07 0.59 232.05-0.15 229.6-0.38L229.6-0.38 222.7-1 223.85-1.05Q222.45-0.85 221.39-0.4 220.33 0.05 219.73 0.79 219.13 1.53 219.13 2.63L219.13 2.63 219.13 2.68Q219.13 3.95 220 4.73 220.88 5.5 222.48 5.83 224.08 6.15 226.28 6.15ZM226.78 9.38L226.05 9.38Q222.75 9.38 220.37 8.81 217.98 8.25 216.67 6.99 215.35 5.73 215.35 3.6L215.35 3.6 215.35 3.5Q215.35 2 216.07 1 216.78 0 217.99-0.58 219.2-1.15 220.7-1.35L220.7-1.35 220.68-1.5Q218.63-1.85 217.65-2.71 216.68-3.58 216.68-4.95L216.68-4.95 216.68-4.98Q216.68-5.93 217.12-6.6 217.55-7.28 218.44-7.68 219.33-8.08 220.7-8.18L220.7-8.18 220.7-8.68 225.35-7.5 223.45-7.55Q221.75-7.53 221.1-7.14 220.45-6.75 220.45-5.98L220.45-5.98 220.45-5.95Q220.45-5.13 221.38-4.7 222.3-4.28 224.53-4.03L224.53-4.03 230.45-3.43Q234.33-3.03 236.1-1.56 237.88-0.1 237.88 2.75L237.88 2.75 237.88 2.88Q237.88 5.15 236.53 6.6 235.18 8.05 232.7 8.71 230.23 9.38 226.78 9.38L226.78 9.38ZM226.4-10.3L226.4-10.3Q228.5-10.3 229.89-10.91 231.28-11.53 231.99-12.76 232.7-14 232.7-15.8L232.7-15.8 232.7-16.4Q232.7-18.15 232.02-19.38 231.33-20.6 229.95-21.24 228.58-21.88 226.5-21.88L226.5-21.88 226.35-21.88Q224.1-21.88 222.69-21.19 221.28-20.5 220.64-19.26 220-18.03 220-16.38L220-16.38 220-15.8Q220-14 220.72-12.78 221.43-11.55 222.85-10.93 224.28-10.3 226.4-10.3ZM252.83 0.55L252.83 0.55Q247.25 0.55 244.43-2.18 241.6-4.9 241.6-9.98L241.6-9.98 241.6-14.33Q241.6-19.48 244.23-22.26 246.85-25.05 251.9-25.05L251.9-25.05Q255.3-25.05 257.58-23.79 259.85-22.53 261-20.2 262.15-17.88 262.15-14.65L262.15-14.65 262.15-13.75Q262.15-12.95 262.09-12.15 262.03-11.35 261.93-10.58L261.93-10.58 258.2-10.58Q258.25-11.78 258.26-12.85 258.28-13.93 258.28-14.83L258.28-14.83Q258.28-17.05 257.56-18.59 256.85-20.13 255.44-20.94 254.03-21.75 251.9-21.75L251.9-21.75Q248.75-21.75 247.18-19.93 245.6-18.1 245.6-14.7L245.6-14.7 245.6-12.38 245.63-11.88 245.63-9.55Q245.63-8.03 246.08-6.8 246.53-5.58 247.49-4.69 248.45-3.8 249.94-3.34 251.43-2.88 253.48-2.88L253.48-2.88Q255.85-2.88 257.9-3.5 259.95-4.13 261.75-5.2L261.75-5.2 261.38-1.7Q259.75-0.68 257.6-0.06 255.45 0.55 252.83 0.55ZM261.08-10.58L243.73-10.58 243.73-13.63 261.08-13.63 261.08-10.58ZM276.42 0.5L276.42 0.5Q273.6 0.5 271.87-0.35 270.15-1.2 269.37-2.93 268.6-4.65 268.6-7.23L268.6-7.23 268.6-22.63 272.6-22.63 272.6-7.7Q272.6-5.3 273.7-4.16 274.8-3.03 277.4-3.03L277.4-3.03Q278.87-3.03 280.24-3.35 281.6-3.68 282.8-4.28L282.8-4.28 282.42-0.8Q281.25-0.2 279.67 0.15 278.1 0.5 276.42 0.5ZM282.17-20.8L264.6-20.8 264.6-24.05 282.55-24.05 282.17-20.8ZM272.5-23.65L268.62-23.65 268.6-30.5 272.67-31.03 272.5-23.65ZM294.95 0.55L294.95 0.55Q292 0.55 289.8-0.09 287.6-0.73 286.15-1.48L286.15-1.48 285.77-5.23Q287.6-4.28 289.78-3.58 291.97-2.88 294.75-2.88L294.75-2.88Q297.57-2.88 299-3.78 300.42-4.67 300.42-6.45L300.42-6.45 300.42-6.73Q300.42-7.88 299.88-8.63 299.35-9.38 297.95-9.95 296.55-10.53 293.97-11.1L293.97-11.1Q290.9-11.78 289.12-12.69 287.35-13.6 286.58-14.95 285.82-16.3 285.82-18.25L285.82-18.25 285.82-18.48Q285.82-21.68 288.05-23.33 290.27-24.98 294.75-24.98L294.75-24.98Q297.62-24.98 299.73-24.33 301.85-23.68 303.2-22.88L303.2-22.88 303.57-19.45Q301.95-20.4 299.85-21.03 297.75-21.65 295.12-21.65L295.12-21.65Q293.22-21.65 292.05-21.26 290.87-20.88 290.35-20.16 289.82-19.45 289.82-18.45L289.82-18.45 289.82-18.25Q289.82-17.15 290.35-16.39 290.87-15.63 292.23-15.06 293.6-14.5 296.02-13.98L296.02-13.98Q299.15-13.35 300.98-12.48 302.82-11.6 303.62-10.26 304.42-8.93 304.42-6.83L304.42-6.83 304.42-6.4Q304.42-2.95 302.02-1.2 299.62 0.55 294.95 0.55Z" opacity="1" transform="matrix(1,0,0,1,0,0)" fill="#000000" class="wordmark-text-0" data-fill-palette-color="primary" id="text-0"></path></svg></g></svg></g></svg></g></svg></g><g transform="matrix(1,0,0,1,426.7475960842656,0)"><svg viewBox="0 0 53.69191451486732 76.74551437066403" height="76.74551437066403" width="53.69191451486732"><g><svg xmlns="http://www.w3.org/2000/svg" xmlns:xlink="http://www.w3.org/1999/xlink" version="1.1" x="0" y="0" viewBox="25.974 15.657999999999998 48.05199999999999 68.684" enable-background="new 0 0 100 100" xml:space="preserve" height="76.74551437066403" width="53.69191451486732" class="icon-icon-0" data-fill-palette-color="accent" id="icon-0"><path fill="#000000" d="M31.28 84.342H68.72c2.926 0 5.306-2.38 5.306-5.306V20.964c0-2.926-2.38-5.306-5.306-5.306H31.28c-2.926 0-5.306 2.38-5.306 5.306v58.072C25.975 81.962 28.354 84.342 31.28 84.342zM72.025 22.816V75.37H27.975V22.816H72.025zM68.72 82.342H31.28c-1.823 0-3.306-1.483-3.306-3.306V77.37h44.051v1.666C72.025 80.858 70.542 82.342 68.72 82.342zM31.28 17.658H68.72c1.772 0 3.212 1.406 3.291 3.158H27.99C28.069 19.064 29.508 17.658 31.28 17.658z" data-fill-palette-color="accent"></path><circle fill="#000000" cx="50" cy="79.799" r="1.5" data-fill-palette-color="accent"></circle><path fill="#000000" d="M37.497 41.939l19.872 21.734c0.197 0.216 0.467 0.325 0.738 0.325 0.241 0 0.482-0.087 0.674-0.262 0.408-0.373 0.436-1.006 0.063-1.413L38.972 40.59c-0.373-0.408-1.005-0.437-1.413-0.063S37.124 41.532 37.497 41.939z" data-fill-palette-color="accent"></path><path fill="#000000" d="M60.139 52.807c0.197 0.216 0.468 0.325 0.739 0.325 0.241 0 0.482-0.087 0.674-0.262 0.408-0.373 0.436-1.006 0.063-1.413L46.481 34.903c-0.374-0.407-1.006-0.436-1.413-0.063-0.408 0.373-0.436 1.006-0.063 1.413L60.139 52.807z" data-fill-palette-color="accent"></path><path fill="#000000" d="M39.861 55.253c-0.373-0.408-1.005-0.436-1.413-0.063-0.408 0.373-0.436 1.006-0.063 1.413l6.106 6.679c0.197 0.216 0.467 0.325 0.738 0.325 0.241 0 0.482-0.087 0.674-0.262 0.408-0.373 0.436-1.006 0.063-1.413L39.861 55.253z" data-fill-palette-color="accent"></path></svg></g></svg></g></svg></g><defs></defs></svg><rect width="395.52" height="63.180452844170844" fill="none" stroke="none" visibility="hidden"></rect></g></svg></g></svg>